<svg aria-hidden="true" style="position: absolute; width: 0; height: 0; overflow: hidden;" version="1.1" xmlns="http://www.w3.org/2000/svg" xmlns:xlink="http://www.w3.org/1999/xlink">
<defs>
<symbol id="arrow-left" viewBox="0 0 32 32">
<path stroke-linejoin="round" stroke-linecap="round" stroke-miterlimit="4" stroke-width="2.6667" d="M25.333 16h-18.667"></path>
<path stroke-linejoin="round" stroke-linecap="round" stroke-miterlimit="4" stroke-width="2.6667" d="M16 25.334l-9.333-9.333 9.333-9.333"></path>
</symbol>
<symbol id="arrow-right" viewBox="0 0 32 32">
<path stroke-linejoin="round" stroke-linecap="round" stroke-miterlimit="4" stroke-width="2.6667" d="M6.667 16h18.667"></path>
<path stroke-linejoin="round" stroke-linecap="round" stroke-miterlimit="4" stroke-width="2.6667" d="M16 25.334l9.333-9.333-9.333-9.333"></path>
</symbol>
<symbol id="close" viewBox="0 0 32 32">
<path stroke-linejoin="miter" stroke-linecap="butt" stroke-miterlimit="4" stroke-width="2.1333" d="M8.533 8.533l14.933 14.933"></path>
<path stroke-linejoin="miter" stroke-linecap="butt" stroke-miterlimit="4" stroke-width="2.1333" d="M8.533 23.467l14.933-14.933"></path>
</symbol>
<symbol id="hart" viewBox="0 0 32 32">
<path fill="#ff6b08" style="fill: var(--color1, #ff6b08)" d="M16 30.583l-2.24-2.24c-8.32-7.36-13.76-12.32-13.76-18.4 0-4.96 3.84-8.8 8.8-8.8 2.72 0 5.44 1.28 7.2 3.36 1.76-2.080 4.48-3.36 7.2-3.36 4.96 0 8.8 3.84 8.8 8.8 0 6.080-5.44 11.040-13.76 18.4l-2.24 2.24z"></path>
</symbol>
<symbol id="logo" viewBox="0 0 32 32">
<path fill="none" stroke-linejoin="round" stroke-linecap="round" stroke-miterlimit="4" stroke-width="2.6667" d="M26.427 2.667h-20.853c-1.605 0-2.907 1.301-2.907 2.907v20.853c0 1.605 1.301 2.907 2.907 2.907h20.853c1.605 0 2.907-1.301 2.907-2.907v-20.853c0-1.605-1.301-2.907-2.907-2.907z"></path>
<path fill="none" stroke-linejoin="round" stroke-linecap="round" stroke-miterlimit="4" stroke-width="2.6667" d="M9.333 2.667v26.667"></path>
<path fill="none" stroke-linejoin="round" stroke-linecap="round" stroke-miterlimit="4" stroke-width="2.6667" d="M22.667 2.667v26.667"></path>
<path fill="none" stroke-linejoin="round" stroke-linecap="round" stroke-miterlimit="4" stroke-width="2.6667" d="M2.667 16h26.667"></path>
<path fill="none" stroke-linejoin="round" stroke-linecap="round" stroke-miterlimit="4" stroke-width="2.6667" d="M2.667 9.333h6.667"></path>
<path fill="none" stroke-linejoin="round" stroke-linecap="round" stroke-miterlimit="4" stroke-width="2.6667" d="M2.667 22.667h6.667"></path>
<path fill="none" stroke-linejoin="round" stroke-linecap="round" stroke-miterlimit="4" stroke-width="2.6667" d="M22.667 22.667h6.667"></path>
<path fill="none" stroke-linejoin="round" stroke-linecap="round" stroke-miterlimit="4" stroke-width="2.6667" d="M22.667 9.333h6.667"></path>
</symbol>
<symbol id="search" viewBox="0 0 32 32">
<path fill="none" stroke="#fff" style="stroke: var(--color3, #fff)" stroke-linejoin="round" stroke-linecap="round" stroke-miterlimit="4" stroke-width="2.6667" d="M14.667 25.333c5.891 0 10.667-4.776 10.667-10.667s-4.776-10.667-10.667-10.667c-5.891 0-10.667 4.776-10.667 10.667s4.776 10.667 10.667 10.667z"></path>
<path fill="none" stroke="#fff" style="stroke: var(--color3, #fff)" stroke-linejoin="round" stroke-linecap="round" stroke-miterlimit="4" stroke-width="2.6667" d="M28 28.001l-5.8-5.8"></path>
</symbol>
<symbol id="user-auth" viewBox="0 0 28 32">
<path d="M14 16c-4.418 0-8-3.582-8-8s3.582-8 8-8v0c4.418 0 8 3.582 8 8s-3.582 8-8 8v0zM13.069 22.45l-1.162-1.938c-0.4-0.669 0.081-1.512 0.856-1.512h2.469c0.775 0 1.256 0.85 0.856 1.512l-1.162 1.938 2.088 7.744 2.25-9.181c0.125-0.506 0.613-0.837 1.119-0.706 4.381 1.1 7.619 5.063 7.619 9.775 0 1.063-0.863 1.919-1.919 1.919h-8.238c-0.131 0-0.25-0.025-0.363-0.069l0.019 0.069h-7l0.019-0.069c-0.113 0.044-0.238 0.069-0.363 0.069h-8.238c-1.056 0-1.919-0.863-1.919-1.919 0-4.719 3.244-8.681 7.619-9.775 0.506-0.125 0.994 0.206 1.119 0.706l2.25 9.181 2.088-7.744z"></path>
</symbol>
<symbol id="user-nonauth" viewBox="0 0 28 32">
<path d="M14 1c-0.419 0-0.675-0.175-0.969-0.381-0.412-0.281-0.906-0.619-2.031-0.619-1.906 0-3.25 2.731-4.125 5.588-2.956 0.544-4.875 1.425-4.875 2.412 0 0.894 1.563 1.694 4.037 2.244-0.025 0.25-0.037 0.5-0.037 0.756 0 1.063 0.206 2.075 0.581 3h-3.744c-0.462 0-0.837 0.375-0.837 0.838 0 0.106 0.019 0.213 0.063 0.313l2.425 6.056c-2.725 2.031-4.487 5.281-4.487 8.938 0 1.025 0.831 1.856 1.856 1.856h24.288c1.025 0 1.856-0.831 1.856-1.856 0-3.656-1.762-6.9-4.481-8.938l2.419-6.056c0.038-0.1 0.063-0.206 0.063-0.313 0-0.463-0.375-0.838-0.837-0.838h-3.744c0.375-0.925 0.581-1.938 0.581-3 0-0.256-0.012-0.506-0.038-0.756 2.475-0.55 4.037-1.35 4.037-2.244 0-0.987-1.919-1.869-4.875-2.412-0.875-2.856-2.219-5.588-4.125-5.588-1.125 0-1.619 0.338-2.031 0.619-0.3 0.206-0.55 0.381-0.969 0.381zM17.5 14h-0.775c-1.031 0-1.944-0.662-2.269-1.637-0.144-0.438-0.762-0.438-0.906 0-0.325 0.975-1.244 1.637-2.269 1.637h-0.781c-1.381 0-2.5-1.119-2.5-2.5v-0.9c1.762 0.256 3.813 0.4 6 0.4s4.238-0.144 6-0.4v0.9c0 1.381-1.119 2.5-2.5 2.5zM12 20l1 2-2 8-3-12 4 2zM20 18l-3 12-2-8 1-2 4-2z"></path>
</symbol>
</defs>
</svg>
